PathFileType	4	(X/Y/Z)	/Users/itak/Documents/Research/Walk-IL/dataset/trc/00343_00011.trc
DataRate	CameraRate	NumFrames	NumMarkers	Units	OrigDataRate	OrigDataStartFrame	OrigNumFrames
100.000000	100.000000	4	54	mm	100.000000	579	772
Frame#	Time	RPSI			LPSI			L3			STRN			T10			C7			CLAV			RBAK			LBAK			LSHO			LUPA			LAEL			LAOL			LWTS			LWPS			LFRA			LIFD			LHPS			LHTS			RSHO			RUPA			RAEL			RAOL			RWTS			RWPS			RFRA			RIFD			RHTS			RHPS			RBHD			LFHD			RFHD			LBHD			LHIP			RHIP			RASI			LASI			LKNE			LTHI			LANK			LTIP			LTOE			LMT1			LMT5			LHEE			RKNE			RTHI			RTIP			RTOE			RMT1			RMT5			RHEE			RANK			*53			
		X1	Y1	Z1	X2	Y2	Z2	X3	Y3	Z3	X4	Y4	Z4	X5	Y5	Z5	X6	Y6	Z6	X7	Y7	Z7	X8	Y8	Z8	X9	Y9	Z9	X10	Y10	Z10	X11	Y11	Z11	X12	Y12	Z12	X13	Y13	Z13	X14	Y14	Z14	X15	Y15	Z15	X16	Y16	Z16	X17	Y17	Z17	X18	Y18	Z18	X19	Y19	Z19	X20	Y20	Z20	X21	Y21	Z21	X22	Y22	Z22	X23	Y23	Z23	X24	Y24	Z24	X25	Y25	Z25	X26	Y26	Z26	X27	Y27	Z27	X28	Y28	Z28	X29	Y29	Z29	X30	Y30	Z30	X31	Y31	Z31	X32	Y32	Z32	X33	Y33	Z33	X34	Y34	Z34	X35	Y35	Z35	X36	Y36	Z36	X37	Y37	Z37	X38	Y38	Z38	X39	Y39	Z39	X40	Y40	Z40	X41	Y41	Z41	X42	Y42	Z42	X43	Y43	Z43	X44	Y44	Z44	X45	Y45	Z45	X46	Y46	Z46	X47	Y47	Z47	X48	Y48	Z48	X49	Y49	Z49	X50	Y50	Z50	X51	Y51	Z51	X52	Y52	Z52	X53	Y53	Z53	X54	Y54	Z54	

580	5.79	-583.59912109375	957.4723510742188	466.3361511230469	-465.6663208007812	953.48046875	414.8424987792969	-534.8800048828125	1009.733825683594	441.2863464355469	-407.1162719726562	1202.535400390625	624.57861328125	-539.2832641601562	1126.256469726562	425.2042236328125	-497.4819641113281	1374.831787109375	437.61083984375	-421.0015563964844	1325.441650390625	575.5120849609375	-585.0477905273438	1239.433715820312	439.2543640136719	-418.36181640625	1334.37451171875	373.9188842773438	-326.107177734375	1348.388549804688	415.9310302734375	-294.7245178222656	1226.885375976562	361.08984375	-306.8627624511719	1024.088623046875	353.6396179199219	-391.6748657226562	1023.158935546875	345.9422302246094	-315.0941162109375	767.9003295898438	427.4393920898438	-298.6479797363281	763.8276977539062	359.8899230957031	-306.7502746582031	918.7205200195312	349.8581237792969	-359.5745849609375	614.24609375	413.2752685546875	-322.1780395507812	696.066650390625	351.2058410644531	-315.6532287597656	686.9954833984375	414.6407165527344	-605.6607666015625	1373.363037109375	569.814208984375	-667.2723999023438	1312.751708984375	597.2603149414062	-719.47607421875	1059.6708984375	667.7216186523438	-651.1784057617188	1027.307495117188	607.3550415039062	-635.1309204101562	867.6754150390625	813.045166015625	-710.350341796875	853.695556640625	818.710205078125	-721.1256103515625	1001.434631347656	712.0130615234375	-631.68017578125	708.6990356445312	880.8805541992188	-632.626708984375	782.9337768554688	876.069580078125	-699.4125366210938	776.8023681640625	857.03564453125	-539.0956420898438	1586.28955078125	515.5258178710938	-339.1984558105469	1599.559204101562	574.1204833984375	-424.1548461914062	1606.336791992188	629.0775146484375	-435.063232421875	1570.018188476562	416.1970825195312	-335.9293212890625	899.3689575195312	458.1900329589844	-660.171875	906.37744140625	579.9406127929688	-580.902587890625	930.7859497070312	662.4501953125	-351.3365783691406	927.09423828125	590.8639526367188	-330.4417724609375	456.7420959472656	632.34033203125	-311.8291320800781	589.4512939453125	586.0619506835938	-424.1459350585938	48.27877044677734	656.4965209960938	-362.8071899414062	232.6388244628906	643.7147827148438	-304.9105224609375	49.49773406982422	835.4037475585938	-383.4909057617188	30.87106895446777	822.4810180664062	-321.0002746582031	47.61473846435547	728.7681884765625	-493.9139099121094	42.76540374755859	687.499267578125	-683.2531127929688	459.8912963867188	580.1150512695312	-657.337890625	699.9962158203125	639.8910522460938	-712.85791015625	358.1319274902344	518.7311401367188	-745.7196655273438	36.61256408691406	373.4429321289062	-700.4398193359375	61.17435455322266	338.6879577636719	-812.3562622070312	88.04204559326172	310.2341918945312	-739.5982055664062	215.4457244873047	237.6581115722656	-788.6871948242188	177.5850372314453	267.4069213867188	nan	nan	nan	
581	5.8	-579.6554565429688	957.7339477539062	474.9290466308594	-462.35400390625	954.0982666015625	421.7270202636719	-530.7401123046875	1010.505065917969	449.12255859375	-401.2411193847656	1203.855102539062	630.6067504882812	-534.9207763671875	1127.052124023438	432.9945068359375	-493.6095886230469	1375.776977539062	444.1903686523438	-415.8162536621094	1326.686401367188	581.569091796875	-580.97607421875	1240.267456054688	446.6644287109375	-414.8428344726562	1335.127563476562	380.3310241699219	-322.2187194824219	1349.721801757812	421.3053894042969	-290.2467651367188	1228.1669921875	366.9487609863281	-300.4958190917969	1025.16552734375	360.9776000976562	-385.4380798339844	1023.495849609375	352.807373046875	-305.2799072265625	770.53369140625	439.4386596679688	-289.0969848632812	765.1053466796875	371.9862670898438	-299.1552124023438	919.6017456054688	358.7748107910156	-347.3135681152344	615.9386596679688	429.0086975097656	-311.6521301269531	696.8346557617188	364.9557189941406	-304.6236267089844	689.3753662109375	428.4880981445312	-600.6691284179688	1374.199096679688	577.3214111328125	-661.9784545898438	1313.385498046875	605.090576171875	-712.95263671875	1059.564819335938	673.4287719726562	-645.7660522460938	1029.089111328125	611.38134765625	-630.442138671875	863.593994140625	815.1153564453125	-705.8031005859375	850.3324584960938	820.1705932617188	-714.8058471679688	1000.572265625	716.7555541992188	-628.8054809570312	702.2926635742188	877.6040649414062	-628.997314453125	776.6134643554688	875.2283325195312	-695.810302734375	772.0386962890625	856.08740234375	-534.4826049804688	1587.3876953125	522.3855590820312	-334.1384887695312	1600.623168945312	579.2402954101562	-418.5443115234375	1607.52978515625	634.9542236328125	-431.3355712890625	1571.019897460938	422.1829833984375	-331.7789001464844	900.1400146484375	463.1606750488281	-653.892333984375	906.5136108398438	589.92138671875	-573.5717163085938	931.9241943359375	671.058837890625	-345.068115234375	928.1038818359375	596.0159912109375	-327.7828369140625	456.4171752929688	634.9284057617188	-308.1315002441406	589.5773315429688	589.6222534179688	-423.7818908691406	48.45097351074219	656.3676147460938	-361.5416259765625	232.5966491699219	644.9113159179688	-304.7513732910156	48.68169021606445	835.5534057617188	-383.5953063964844	30.74019432067871	822.5681762695312	-320.7265930175781	47.10274887084961	728.9002685546875	-493.7578430175781	42.99481582641602	687.5333251953125	-675.6372680664062	460.1158142089844	601.1358032226562	-649.5963745117188	700.93115234375	653.5057983398438	-706.0485229492188	359.3897705078125	538.7198486328125	-743.6124267578125	35.87125778198242	380.3612670898438	-698.8215942382812	65.30818939208984	346.2539978027344	-810.8590087890625	95.51197814941406	322.4571838378906	-739.5465087890625	226.7013244628906	255.1487426757812	-788.2925415039062	187.6788330078125	284.0927429199219	nan	nan	nan	
582	5.81	-575.8662719726562	957.7650756835938	483.3009948730469	-459.2089233398438	954.569580078125	428.3827514648438	-526.74609375	1011.19189453125	456.6805114746094	-395.5328979492188	1205.013427734375	636.450927734375	-530.5634155273438	1127.820068359375	440.5767211914062	-489.8357543945312	1376.6884765625	450.6573181152344	-410.7215270996094	1327.811767578125	587.4891967773438	-576.9389038085938	1241.058715820312	453.9280700683594	-411.4908142089844	1335.74560546875	386.6525573730469	-318.4332885742188	1350.877685546875	426.5394287109375	-285.8918762207031	1229.237670898438	372.6471557617188	-294.0385437011719	1026.045166015625	368.0946960449219	-379.0677795410156	1023.55517578125	359.4377746582031	-295.2349853515625	773.298828125	451.4507141113281	-279.2223815917969	766.4121704101562	384.1408081054688	-291.4065856933594	920.32666015625	367.5014953613281	-334.35009765625	617.810302734375	445.1036071777344	-300.6265869140625	697.6366577148438	378.9089660644531	-293.14111328125	691.9537353515625	442.4971008300781	-595.7841186523438	1374.920654296875	584.769775390625	-656.7826538085938	1313.857543945312	612.8092651367188	-706.49560546875	1059.356567382812	679.314697265625	-640.451416015625	1030.569702148438	615.6427001953125	-625.9757690429688	859.4927978515625	817.1534423828125	-701.4918823242188	847.0064086914062	821.611328125	-708.6168823242188	999.683349609375	721.656494140625	-626.3330688476562	696.0952758789062	874.2586059570312	-625.6668090820312	770.431884765625	874.3139038085938	-692.4788208007812	767.3719482421875	855.077880859375	-529.9132080078125	1588.460571289062	529.2077026367188	-329.11669921875	1601.652954101562	584.2423706054688	-412.9506225585938	1608.69580078125	640.7724609375	-427.6965637207031	1572.013916015625	428.1051635742188	-327.7305908203125	900.7844848632812	467.9354858398438	-647.6239013671875	906.4703369140625	599.7337036132812	-566.3301391601562	932.9480590820312	679.4730834960938	-338.9605712890625	928.9478149414062	600.9701538085938	-325.4217834472656	455.9295043945312	637.1624145507812	-304.9416809082031	589.4857177734375	592.6651611328125	-423.4679260253906	48.56622314453125	656.2265014648438	-360.5429077148438	232.5294647216797	645.8309326171875	-304.5692749023438	48.03960418701172	835.6466674804688	-383.6620788574219	30.69319343566895	822.61181640625	-320.5247192382812	46.67377853393555	728.9527587890625	-493.63623046875	43.19162368774414	687.5606689453125	-667.3714599609375	460.2667236328125	622.264892578125	-641.6134643554688	701.8726806640625	667.0767211914062	-698.3916015625	360.4892883300781	558.9586181640625	-740.6079711914062	35.93044281005859	388.8977966308594	-696.4158325195312	69.91704559326172	355.1966247558594	-808.63134765625	102.9121475219727	336.4476013183594	-738.8826904296875	237.2044067382812	273.2894592285156	-787.2174682617188	197.2148742675781	301.7538757324219	nan	nan	nan	
583	5.82	-572.2503051757812	957.6276245117188	491.4823303222656	-456.2593994140625	954.9623413085938	434.8299255371094	-522.9078979492188	1011.828796386719	463.9880981445312	-389.9861755371094	1206.04443359375	642.1190185546875	-526.25439453125	1128.589599609375	447.9262084960938	-486.1679992675781	1377.588256835938	457.0149841308594	-405.7239379882812	1328.847412109375	593.2745361328125	-572.9396362304688	1241.838623046875	461.0596008300781	-408.2848510742188	1336.303833007812	392.8208312988281	-314.7709045410156	1351.895141601562	431.6121520996094	-281.6872863769531	1230.134033203125	378.1618347167969	-287.5001525878906	1026.762573242188	375.0132751464844	-372.5492248535156	1023.371154785156	365.8592224121094	-285.0365600585938	776.2353515625	463.4327087402344	-269.061767578125	767.8119506835938	396.3296203613281	-283.5166320800781	920.9462890625	376.0635070800781	-320.7348327636719	619.9476928710938	461.4682006835938	-289.1257934570312	698.5579833984375	393.0150756835938	-281.2718505859375	694.7980346679688	456.6178588867188	-590.9896850585938	1375.57421875	592.1693115234375	-651.665283203125	1314.21728515625	620.4458618164062	-700.1102294921875	1059.08447265625	685.3501586914062	-635.1280517578125	1031.707885742188	620.2399291992188	-621.7213134765625	855.4306030273438	819.1239624023438	-697.3976440429688	843.7903442382812	823.0367431640625	-702.552001953125	998.8134765625	726.695068359375	-624.2452392578125	690.2080688476562	870.9129028320312	-622.6171875	764.4705200195312	873.3468017578125	-689.3919067382812	762.8886108398438	854.0367431640625	-525.393798828125	1589.520874023438	535.9891967773438	-324.1323852539062	1602.654907226562	589.1350708007812	-407.3782348632812	1609.830200195312	646.524658203125	-424.1417236328125	1573.012939453125	433.9629821777344	-323.8337707519531	901.3604125976562	472.5155639648438	-641.433837890625	906.3560180664062	609.386962890625	-559.18896484375	933.9174194335938	687.7057495117188	-333.0332336425781	929.6895141601562	605.723388671875	-323.3342895507812	455.3881530761719	639.0518798828125	-302.240478515625	589.2685546875	595.2423095703125	-423.2118835449219	48.6093864440918	656.093994140625	-359.7451171875	232.4469451904297	646.500732421875	-304.3797912597656	47.55928039550781	835.7081298828125	-383.6988525390625	30.69914627075195	822.623779296875	-320.3866882324219	46.33607864379883	728.9503173828125	-493.5334167480469	43.36445999145508	687.5689086914062	-658.46337890625	460.4469299316406	643.3258666992188	-633.3694458007812	702.8895263671875	680.6069946289062	-689.9307250976562	361.4960632324219	579.2953491210938	-736.6795043945312	36.98842620849609	399.31787109375	-693.2069091796875	74.85039520263672	365.7272644042969	-805.626953125	109.938232421875	352.1322631835938	-737.5382690429688	246.6641693115234	291.8812255859375	-785.3710327148438	205.8906860351562	320.2160949707031	nan	nan	nan	
